   <svg xmlns="http://www.w3.org/2000/svg" x="0px" y="0px" width="26" height="26" viewBox="0,0,256,256">
                    <g fill="#ffffff" fill-rule="nonzero" stroke="none" stroke-width="1" stroke-linecap="butt" stroke-linejoin="miter" stroke-miterlimit="10" stroke-dasharray="" stroke-dashoffset="0" font-family="none" font-weight="none" font-size="none" text-anchor="none" style="mix-blend-mode: normal"><g transform="scale(5.12,5.12)"><path d="M23,3c-0.55078,0 -1,0.44922 -1,1v7.75l-5,10v-1.75c0,-0.55078 -0.44922,-1 -1,-1h-13c-0.28516,0 -0.55859,0.12891 -0.75,0.34375c-0.19141,0.21484 -0.28516,0.49609 -0.25,0.78125l3,24c0.0625,0.5 0.49609,0.875 1,0.875h10c0.55078,0 1,-0.44531 1,-1v-1h1.15625c0.41406,1.16406 1.53906,2 2.84375,2h19c2.20703,0 4,-1.79297 4,-4c0,-0.82422 -0.26172,-1.58203 -0.6875,-2.21875c1.55859,-0.54687 2.6875,-2.03906 2.6875,-3.78125c0,-0.98047 -0.35156,-1.86719 -0.9375,-2.5625c1.16016,-0.69922 1.9375,-1.98437 1.9375,-3.4375c0,-0.98047 -0.35156,-1.86719 -0.9375,-2.5625c1.16016,-0.69922 1.9375,-1.98437 1.9375,-3.4375c0,-2.20703 -1.79297,-4 -4,-4h-14.625c0.60938,-1.92969 1.625,-5.38281 1.625,-7c0,-3.76562 -2.75781,-9 -5.46875,-9zM24,5h1.53125c0.91797,0 3.46875,3.48047 3.46875,7c0,1.56641 -1.39844,6.08203 -1.9375,7.6875c-0.10547,0.30469 -0.0625,0.64453 0.125,0.90625c0.1875,0.26172 0.49219,0.40625 0.8125,0.40625h16c1.10156,0 2,0.89844 2,2c0,1.10156 -0.89844,2 -2,2h-1c-0.55469,0 -1,0.44531 -1,1c0,0.55469 0.44531,1 1,1c1.10156,0 2,0.89844 2,2c0,1.10156 -0.89844,2 -2,2h-1c-0.55469,0 -1,0.44531 -1,1c0,0.55469 0.44531,1 1,1c1.10156,0 2,0.89844 2,2c0,1.10156 -0.89844,2 -2,2h-2c-0.55469,0 -1,0.44531 -1,1c0,0.55469 0.44531,1 1,1c1.10156,0 2,0.89844 2,2c0,1.10156 -0.89844,2 -2,2h-19c-0.55078,0 -1,-0.44922 -1,-1c0,-0.55469 -0.44922,-1 -1,-1h-2v-17h0.5c0.37891,0 0.73438,-0.22266 0.90625,-0.5625l5.5,-11c0.07031,-0.13672 0.09375,-0.28125 0.09375,-0.4375zM4.125,21h10.875v22h-8.125zM11.5,38c-0.82812,0 -1.5,0.67188 -1.5,1.5c0,0.82813 0.67188,1.5 1.5,1.5c0.82813,0 1.5,-0.67187 1.5,-1.5c0,-0.82812 -0.67187,-1.5 -1.5,-1.5z"></path></g></g>
                </svg>